<svg xmlns="http://www.w3.org/2000/svg" viewBox="0 0 512 512" role="img" aria-label="Pink heart favicon">
  <defs>
    <radialGradient id="g" cx="32%" cy="28%" r="70%">
      <stop offset="0" stop-color="#ffd1e8"/>
      <stop offset="0.35" stop-color="#ff7fbd"/>
      <stop offset="1" stop-color="#ff2d8d"/>
    </radialGradient>
    <filter id="s" x="-20%" y="-20%" width="140%" height="140%">
      <feDropShadow dx="0" dy="10" stdDeviation="14" flood-color="#b3004f" flood-opacity="0.28" />
    </filter>
  </defs>

  <!-- Keep background transparent; browsers will mask for many contexts -->
  <path
    filter="url(#s)"
    fill="url(#g)"
    d="M256 454s-10-7.5-24.8-17.4C167.6 394 76 327.5 76 220.7 76 153.9 126.8 104 191.7 104c33.6 0 61.8 15.5 80 40.3 18.2-24.8 46.4-40.3 80-40.3C416.6 104 468 154.1 468 220.7c0 106.8-91.6 173.3-155.2 215.9C266 446.5 256 454 256 454z"
  />
  <!-- subtle highlight -->
  <path
    fill="#ffffff"
    opacity="0.22"
    d="M204 160c-38 0-70 32-70 71 0 7 1 14 3 21 2 7-2 14-9 16-7 2-14-2-16-9-3-10-4-19-4-28 0-53 43-97 96-97 7 0 12 6 12 12s-5 14-12 14z"
  />
</svg>
